<svg width="1028" height="740" viewBox="0 0 1028 740" fill="none" xmlns="http://www.w3.org/2000/svg">
<rect x="22" y="37.5" width="982" height="660" rx="39" fill="#0A0B0E"/>
<path d="M408.703 97.5V76.512L406.723 71.58H417.091C419.251 71.58 421.039 71.88 422.455 72.48C423.871 73.056 424.927 74.04 425.623 75.432C426.319 76.824 426.667 78.72 426.667 81.12C426.667 84.432 425.875 86.82 424.291 88.284C422.707 89.748 420.307 90.48 417.091 90.48H415.723V97.5H408.703ZM415.723 85.332C416.875 85.332 417.727 85.02 418.279 84.396C418.855 83.772 419.143 82.656 419.143 81.048C419.143 79.824 419.035 78.9 418.819 78.276C418.627 77.652 418.279 77.232 417.775 77.016C417.295 76.776 416.611 76.656 415.723 76.656V85.332ZM428.839 71.58H435.859V91.38H443.815L442.699 97.5H428.839V71.58ZM452.025 94.008L451.341 97.5H443.817L449.001 74.82L448.173 71.292H459.045L464.697 97.5H457.245L456.561 94.008H452.025ZM452.745 88.428H455.805L454.293 78.996L452.745 88.428ZM468.017 89.58L461.465 71.58H469.025L471.113 79.212L471.689 82.38H471.761L472.337 79.212L474.425 71.58H481.625L475.037 89.58V97.5H468.017V89.58ZM481.816 71.58H499.06L497.98 77.34H490.816V81.3H497.548L496.468 87.06H490.816V91.74H499.312L498.232 97.5H483.796V76.512L481.816 71.58ZM510.076 71.58C512.188 71.58 513.952 71.856 515.368 72.408C516.784 72.936 517.84 73.836 518.536 75.108C519.256 76.356 519.616 78.072 519.616 80.256C519.616 82.08 519.34 83.58 518.788 84.756C518.236 85.908 517.396 86.832 516.268 87.528L520.66 97.5H512.848L510.004 89.076H508.852V97.5H501.832V76.512L499.852 71.58H510.076ZM508.852 84.252C509.956 84.252 510.772 83.976 511.3 83.424C511.828 82.872 512.092 81.9 512.092 80.508C512.092 79.404 511.996 78.588 511.804 78.06C511.612 77.508 511.276 77.136 510.796 76.944C510.34 76.752 509.692 76.656 508.852 76.656V84.252ZM537.94 91.632C538.852 91.632 539.536 91.5 539.992 91.236C540.448 90.972 540.676 90.54 540.676 89.94C540.676 89.532 540.568 89.208 540.352 88.968C540.136 88.728 539.752 88.488 539.2 88.248L535.384 86.484C533.968 85.836 532.876 84.972 532.108 83.892C531.34 82.812 530.956 81.24 530.956 79.176C530.956 76.536 531.64 74.568 533.008 73.272C534.4 71.952 536.692 71.28 539.884 71.256C541.204 71.256 542.404 71.316 543.484 71.436C544.564 71.556 545.428 71.688 546.076 71.832C546.724 71.952 547.048 72.012 547.048 72.012L546.328 77.808C546.328 77.808 546.028 77.772 545.428 77.7C544.852 77.628 544.132 77.568 543.268 77.52C542.404 77.448 541.564 77.412 540.748 77.412C539.884 77.412 539.224 77.544 538.768 77.808C538.336 78.048 538.12 78.516 538.12 79.212C538.12 79.596 538.288 79.92 538.624 80.184C538.96 80.424 539.428 80.676 540.028 80.94L543.088 82.272C544.72 82.992 545.908 83.892 546.652 84.972C547.396 86.028 547.768 87.54 547.768 89.508C547.768 92.172 547.072 94.224 545.68 95.664C544.288 97.104 541.996 97.836 538.804 97.86C537.22 97.86 535.744 97.752 534.376 97.536C533.008 97.344 531.796 97.116 530.74 96.852L531.46 91.056C531.46 91.056 531.748 91.104 532.324 91.2C532.924 91.296 533.716 91.392 534.7 91.488C535.684 91.584 536.764 91.632 537.94 91.632ZM565.756 77.34H561.004V97.5H553.948V77.34H548.692V71.58H566.836L565.756 77.34ZM572.505 94.008L571.821 97.5H564.297L569.481 74.82L568.653 71.292H579.525L585.177 97.5H577.725L577.041 94.008H572.505ZM573.225 88.428H576.285L574.773 78.996L573.225 88.428ZM599.893 77.34H595.141V97.5H588.085V77.34H582.829V71.58H600.973L599.893 77.34ZM608.534 91.632C609.446 91.632 610.13 91.5 610.586 91.236C611.042 90.972 611.27 90.54 611.27 89.94C611.27 89.532 611.162 89.208 610.946 88.968C610.73 88.728 610.346 88.488 609.794 88.248L605.978 86.484C604.562 85.836 603.47 84.972 602.702 83.892C601.934 82.812 601.55 81.24 601.55 79.176C601.55 76.536 602.234 74.568 603.602 73.272C604.994 71.952 607.286 71.28 610.478 71.256C611.798 71.256 612.998 71.316 614.078 71.436C615.158 71.556 616.022 71.688 616.67 71.832C617.318 71.952 617.642 72.012 617.642 72.012L616.922 77.808C616.922 77.808 616.622 77.772 616.022 77.7C615.446 77.628 614.726 77.568 613.862 77.52C612.998 77.448 612.158 77.412 611.342 77.412C610.478 77.412 609.818 77.544 609.362 77.808C608.93 78.048 608.714 78.516 608.714 79.212C608.714 79.596 608.882 79.92 609.218 80.184C609.554 80.424 610.022 80.676 610.622 80.94L613.682 82.272C615.314 82.992 616.502 83.892 617.246 84.972C617.99 86.028 618.362 87.54 618.362 89.508C618.362 92.172 617.666 94.224 616.274 95.664C614.882 97.104 612.59 97.836 609.398 97.86C607.814 97.86 606.338 97.752 604.97 97.536C603.602 97.344 602.39 97.116 601.334 96.852L602.054 91.056C602.054 91.056 602.342 91.104 602.918 91.2C603.518 91.296 604.31 91.392 605.294 91.488C606.278 91.584 607.358 91.632 608.534 91.632Z" fill="white"/>
<rect x="22" y="220.5" width="982" height="451" fill="#242628"/>
<circle cx="131" cy="212.5" r="47" fill="#D9D9D9"/>
<path d="M218.223 200.58L223.299 215.376V200.58H230.139V226.5H221.715L217.107 213.036V226.5H210.267V204.288L208.791 200.58H218.223ZM240.136 223.008L239.452 226.5H231.928L237.112 203.82L236.284 200.292H247.156L252.808 226.5H245.356L244.672 223.008H240.136ZM240.856 217.428H243.916L242.404 207.996L240.856 217.428ZM264.259 221.172L261.091 213.612V226.5H254.251V205.512L252.271 200.58H260.839L265.879 211.416L270.919 200.58H277.543V226.5H270.703V213.684L267.535 221.172H264.259ZM279.174 200.58H296.418L295.338 206.34H288.174V210.3H294.906L293.826 216.06H288.174V220.74H296.67L295.59 226.5H281.154V205.512L279.174 200.58Z" fill="white"/>
<rect x="22" y="268.5" width="982" height="55" fill="#0A0B0E"/>
<rect width="956" height="317" transform="translate(33 340.5)" fill="#0A0B0E"/>
<path d="M351.237 430.5V418.84L350.137 416.1H355.897C357.097 416.1 358.09 416.267 358.877 416.6C359.663 416.92 360.25 417.467 360.637 418.24C361.023 419.013 361.217 420.067 361.217 421.4C361.217 423.24 360.777 424.567 359.897 425.38C359.017 426.193 357.683 426.6 355.897 426.6H355.137V430.5H351.237ZM355.137 423.74C355.777 423.74 356.25 423.567 356.557 423.22C356.877 422.873 357.037 422.253 357.037 421.36C357.037 420.68 356.977 420.167 356.857 419.82C356.75 419.473 356.557 419.24 356.277 419.12C356.01 418.987 355.63 418.92 355.137 418.92V423.74ZM362.423 416.1H366.323V427.1H370.743L370.123 430.5H362.423V416.1ZM375.305 428.56L374.925 430.5H370.745L373.625 417.9L373.165 415.94H379.205L382.345 430.5H378.205L377.825 428.56H375.305ZM375.705 425.46H377.405L376.565 420.22L375.705 425.46ZM384.189 426.1L380.549 416.1H384.749L385.909 420.34L386.229 422.1H386.269L386.589 420.34L387.749 416.1H391.749L388.089 426.1V430.5H384.189V426.1ZM391.855 416.1H401.435L400.835 419.3H396.855V421.5H400.595L399.995 424.7H396.855V427.3H401.575L400.975 430.5H392.955V418.84L391.855 416.1ZM407.735 416.1C409.108 416.1 410.215 416.313 411.055 416.74C411.895 417.153 412.508 417.867 412.895 418.88C413.282 419.88 413.475 421.26 413.475 423.02C413.475 424.913 413.282 426.407 412.895 427.5C412.508 428.593 411.895 429.367 411.055 429.82C410.215 430.273 409.108 430.5 407.735 430.5H402.975V418.84L401.875 416.1H407.735ZM407.495 427.3C407.922 427.3 408.262 427.173 408.515 426.92C408.782 426.653 408.975 426.213 409.095 425.6C409.215 424.973 409.275 424.113 409.275 423.02C409.275 422.02 409.222 421.253 409.115 420.72C409.008 420.173 408.828 419.8 408.575 419.6C408.322 419.4 407.962 419.3 407.495 419.3H406.875V427.3H407.495ZM415.107 427.2H418.627V430.5H415.107V427.2ZM415.107 420.24H418.627V423.54H415.107V420.24Z" fill="white"/>
<path d="M314.354 459.38C314.354 460.367 314.427 461.153 314.574 461.74C314.721 462.327 314.967 462.753 315.314 463.02C315.674 463.287 316.167 463.447 316.794 463.5V462.12L315.694 459.38H320.394V465.82C319.967 466.1 319.414 466.32 318.734 466.48C318.054 466.627 317.274 466.7 316.394 466.7C315.114 466.7 314.007 466.46 313.074 465.98C312.141 465.5 311.421 464.727 310.914 463.66C310.407 462.58 310.154 461.16 310.154 459.4C310.154 457.627 310.427 456.193 310.974 455.1C311.521 454.007 312.287 453.207 313.274 452.7C314.261 452.193 315.407 451.94 316.714 451.94C317.181 451.94 317.667 451.98 318.174 452.06C318.681 452.14 319.201 452.233 319.734 452.34L319.374 455.62C318.934 455.54 318.554 455.48 318.234 455.44C317.927 455.387 317.614 455.36 317.294 455.36C316.601 455.36 316.034 455.473 315.594 455.7C315.167 455.927 314.854 456.333 314.654 456.92C314.454 457.493 314.354 458.313 314.354 459.38ZM325.351 464.56L324.971 466.5H320.791L323.671 453.9L323.211 451.94H329.251L332.391 466.5H328.251L327.871 464.56H325.351ZM325.751 461.46H327.451L326.611 456.22L325.751 461.46ZM338.753 463.54L336.993 459.34V466.5H333.193V454.84L332.093 452.1H336.853L339.653 458.12L342.453 452.1H346.133V466.5H342.333V459.38L340.573 463.54H338.753ZM347.039 452.1H356.619L356.019 455.3H352.039V457.5H355.779L355.179 460.7H352.039V463.3H356.759L356.159 466.5H348.139V454.84L347.039 452.1ZM361.559 463.24C362.065 463.24 362.445 463.167 362.699 463.02C362.952 462.873 363.079 462.633 363.079 462.3C363.079 462.073 363.019 461.893 362.899 461.76C362.779 461.627 362.565 461.493 362.259 461.36L360.139 460.38C359.352 460.02 358.745 459.54 358.319 458.94C357.892 458.34 357.679 457.467 357.679 456.32C357.679 454.853 358.059 453.76 358.819 453.04C359.592 452.307 360.865 451.933 362.639 451.92C363.372 451.92 364.039 451.953 364.639 452.02C365.239 452.087 365.719 452.16 366.079 452.24C366.439 452.307 366.619 452.34 366.619 452.34L366.219 455.56C366.219 455.56 366.052 455.54 365.719 455.5C365.399 455.46 364.999 455.427 364.519 455.4C364.039 455.36 363.572 455.34 363.119 455.34C362.639 455.34 362.272 455.413 362.019 455.56C361.779 455.693 361.659 455.953 361.659 456.34C361.659 456.553 361.752 456.733 361.939 456.88C362.125 457.013 362.385 457.153 362.719 457.3L364.419 458.04C365.325 458.44 365.985 458.94 366.399 459.54C366.812 460.127 367.019 460.967 367.019 462.06C367.019 463.54 366.632 464.68 365.859 465.48C365.085 466.28 363.812 466.687 362.039 466.7C361.159 466.7 360.339 466.64 359.579 466.52C358.819 466.413 358.145 466.287 357.559 466.14L357.959 462.92C357.959 462.92 358.119 462.947 358.439 463C358.772 463.053 359.212 463.107 359.759 463.16C360.305 463.213 360.905 463.24 361.559 463.24ZM375.207 466.5L372.927 452.1H377.087L377.767 460.9L379.427 454.06H382.547L384.227 460.96L384.887 452.1H389.047L386.767 466.5H382.947L381.027 458.02L379.027 466.5H375.207ZM394.794 466.7C393.487 466.7 392.434 466.48 391.634 466.04C390.834 465.587 390.247 464.827 389.874 463.76C389.514 462.68 389.334 461.2 389.334 459.32C389.334 457.44 389.514 455.967 389.874 454.9C390.247 453.82 390.834 453.06 391.634 452.62C392.434 452.167 393.487 451.94 394.794 451.94C396.1 451.94 397.154 452.167 397.954 452.62C398.754 453.06 399.334 453.82 399.694 454.9C400.067 455.967 400.254 457.44 400.254 459.32C400.254 461.2 400.067 462.68 399.694 463.76C399.334 464.827 398.754 465.587 397.954 466.04C397.154 466.48 396.1 466.7 394.794 466.7ZM396.054 459.28C396.054 458.133 396.014 457.26 395.934 456.66C395.867 456.047 395.74 455.627 395.554 455.4C395.38 455.16 395.127 455.04 394.794 455.04C394.474 455.04 394.22 455.16 394.034 455.4C393.847 455.627 393.714 456.047 393.634 456.66C393.567 457.26 393.534 458.133 393.534 459.28C393.534 460.413 393.567 461.293 393.634 461.92C393.714 462.547 393.847 462.987 394.034 463.24C394.22 463.48 394.474 463.6 394.794 463.6C395.127 463.6 395.38 463.48 395.554 463.24C395.74 462.987 395.867 462.547 395.934 461.92C396.014 461.293 396.054 460.413 396.054 459.28ZM405.736 452.1L408.556 460.32V452.1H412.356V466.5H407.676L405.116 459.02V466.5H401.316V454.16L400.496 452.1H405.736ZM414.49 463.2H418.01V466.5H414.49V463.2ZM414.49 456.24H418.01V459.54H414.49V456.24Z" fill="white"/>
<path d="M314.168 497.38C314.168 498.367 314.242 499.153 314.388 499.74C314.535 500.327 314.782 500.753 315.128 501.02C315.488 501.287 315.982 501.447 316.608 501.5V500.12L315.508 497.38H320.208V503.82C319.782 504.1 319.228 504.32 318.548 504.48C317.868 504.627 317.088 504.7 316.208 504.7C314.928 504.7 313.822 504.46 312.888 503.98C311.955 503.5 311.235 502.727 310.728 501.66C310.222 500.58 309.968 499.16 309.968 497.4C309.968 495.627 310.242 494.193 310.788 493.1C311.335 492.007 312.102 491.207 313.088 490.7C314.075 490.193 315.222 489.94 316.528 489.94C316.995 489.94 317.482 489.98 317.988 490.06C318.495 490.14 319.015 490.233 319.548 490.34L319.188 493.62C318.748 493.54 318.368 493.48 318.048 493.44C317.742 493.387 317.428 493.36 317.108 493.36C316.415 493.36 315.848 493.473 315.408 493.7C314.982 493.927 314.668 494.333 314.468 494.92C314.268 495.493 314.168 496.313 314.168 497.38ZM325.166 502.56L324.786 504.5H320.606L323.486 491.9L323.026 489.94H329.066L332.206 504.5H328.066L327.686 502.56H325.166ZM325.566 499.46H327.266L326.426 494.22L325.566 499.46ZM338.567 501.54L336.807 497.34V504.5H333.007V492.84L331.907 490.1H336.667L339.467 496.12L342.267 490.1H345.947V504.5H342.147V497.38L340.387 501.54H338.567ZM346.854 490.1H356.434L355.834 493.3H351.854V495.5H355.594L354.994 498.7H351.854V501.3H356.574L355.974 504.5H347.954V492.84L346.854 490.1ZM361.373 501.24C361.88 501.24 362.26 501.167 362.513 501.02C362.766 500.873 362.893 500.633 362.893 500.3C362.893 500.073 362.833 499.893 362.713 499.76C362.593 499.627 362.38 499.493 362.073 499.36L359.953 498.38C359.166 498.02 358.56 497.54 358.133 496.94C357.706 496.34 357.493 495.467 357.493 494.32C357.493 492.853 357.873 491.76 358.633 491.04C359.406 490.307 360.68 489.933 362.453 489.92C363.186 489.92 363.853 489.953 364.453 490.02C365.053 490.087 365.533 490.16 365.893 490.24C366.253 490.307 366.433 490.34 366.433 490.34L366.033 493.56C366.033 493.56 365.866 493.54 365.533 493.5C365.213 493.46 364.813 493.427 364.333 493.4C363.853 493.36 363.386 493.34 362.933 493.34C362.453 493.34 362.086 493.413 361.833 493.56C361.593 493.693 361.473 493.953 361.473 494.34C361.473 494.553 361.566 494.733 361.753 494.88C361.94 495.013 362.2 495.153 362.533 495.3L364.233 496.04C365.14 496.44 365.8 496.94 366.213 497.54C366.626 498.127 366.833 498.967 366.833 500.06C366.833 501.54 366.446 502.68 365.673 503.48C364.9 504.28 363.626 504.687 361.853 504.7C360.973 504.7 360.153 504.64 359.393 504.52C358.633 504.413 357.96 504.287 357.373 504.14L357.773 500.92C357.773 500.92 357.933 500.947 358.253 501C358.586 501.053 359.026 501.107 359.573 501.16C360.12 501.213 360.72 501.24 361.373 501.24ZM373.242 490.1H377.142V501.1H381.562L380.942 504.5H373.242V490.1ZM387.128 504.7C385.821 504.7 384.768 504.48 383.968 504.04C383.168 503.587 382.581 502.827 382.208 501.76C381.848 500.68 381.668 499.2 381.668 497.32C381.668 495.44 381.848 493.967 382.208 492.9C382.581 491.82 383.168 491.06 383.968 490.62C384.768 490.167 385.821 489.94 387.128 489.94C388.434 489.94 389.488 490.167 390.288 490.62C391.088 491.06 391.668 491.82 392.028 492.9C392.401 493.967 392.588 495.44 392.588 497.32C392.588 499.2 392.401 500.68 392.028 501.76C391.668 502.827 391.088 503.587 390.288 504.04C389.488 504.48 388.434 504.7 387.128 504.7ZM388.388 497.28C388.388 496.133 388.348 495.26 388.268 494.66C388.201 494.047 388.074 493.627 387.888 493.4C387.714 493.16 387.461 493.04 387.128 493.04C386.808 493.04 386.554 493.16 386.368 493.4C386.181 493.627 386.048 494.047 385.968 494.66C385.901 495.26 385.868 496.133 385.868 497.28C385.868 498.413 385.901 499.293 385.968 499.92C386.048 500.547 386.181 500.987 386.368 501.24C386.554 501.48 386.808 501.6 387.128 501.6C387.461 501.6 387.714 501.48 387.888 501.24C388.074 500.987 388.201 500.547 388.268 499.92C388.348 499.293 388.388 498.413 388.388 497.28ZM397.291 501.24C397.798 501.24 398.178 501.167 398.431 501.02C398.684 500.873 398.811 500.633 398.811 500.3C398.811 500.073 398.751 499.893 398.631 499.76C398.511 499.627 398.298 499.493 397.991 499.36L395.871 498.38C395.084 498.02 394.478 497.54 394.051 496.94C393.624 496.34 393.411 495.467 393.411 494.32C393.411 492.853 393.791 491.76 394.551 491.04C395.324 490.307 396.598 489.933 398.371 489.92C399.104 489.92 399.771 489.953 400.371 490.02C400.971 490.087 401.451 490.16 401.811 490.24C402.171 490.307 402.351 490.34 402.351 490.34L401.951 493.56C401.951 493.56 401.784 493.54 401.451 493.5C401.131 493.46 400.731 493.427 400.251 493.4C399.771 493.36 399.304 493.34 398.851 493.34C398.371 493.34 398.004 493.413 397.751 493.56C397.511 493.693 397.391 493.953 397.391 494.34C397.391 494.553 397.484 494.733 397.671 494.88C397.858 495.013 398.118 495.153 398.451 495.3L400.151 496.04C401.058 496.44 401.718 496.94 402.131 497.54C402.544 498.127 402.751 498.967 402.751 500.06C402.751 501.54 402.364 502.68 401.591 503.48C400.818 504.28 399.544 504.687 397.771 504.7C396.891 504.7 396.071 504.64 395.311 504.52C394.551 504.413 393.878 504.287 393.291 504.14L393.691 500.92C393.691 500.92 393.851 500.947 394.171 501C394.504 501.053 394.944 501.107 395.491 501.16C396.038 501.213 396.638 501.24 397.291 501.24ZM412.744 493.3H410.104V504.5H406.184V493.3H403.264V490.1H413.344L412.744 493.3ZM414.676 501.2H418.196V504.5H414.676V501.2ZM414.676 494.24H418.196V497.54H414.676V494.24Z" fill="white"/>
<path d="M318.802 530.86H316.294V541.5H312.57V530.86H309.796V527.82H319.372L318.802 530.86ZM320.313 527.82H324.018V541.5H320.313V527.82ZM331.013 538.688L329.341 534.698V541.5H325.731V530.423L324.686 527.82H329.208L331.868 533.539L334.528 527.82H338.024V541.5H334.414V534.736L332.742 538.688H331.013ZM338.885 527.82H347.986L347.416 530.86H343.635V532.95H347.188L346.618 535.99H343.635V538.46H348.119L347.549 541.5H339.93V530.423L338.885 527.82ZM354.199 541.5V530.423L353.154 527.82H358.626C359.766 527.82 360.709 527.978 361.457 528.295C362.204 528.599 362.761 529.118 363.129 529.853C363.496 530.588 363.68 531.588 363.68 532.855C363.68 534.603 363.262 535.863 362.426 536.636C361.59 537.409 360.323 537.795 358.626 537.795H357.904V541.5H354.199ZM357.904 535.078C358.512 535.078 358.961 534.913 359.253 534.584C359.557 534.255 359.709 533.666 359.709 532.817C359.709 532.171 359.652 531.683 359.538 531.354C359.436 531.025 359.253 530.803 358.987 530.689C358.733 530.562 358.372 530.499 357.904 530.499V535.078ZM364.826 527.82H368.531V538.27H372.73L372.141 541.5H364.826V527.82ZM377.063 539.657L376.702 541.5H372.731L375.467 529.53L375.03 527.668H380.768L383.751 541.5H379.818L379.457 539.657H377.063ZM377.443 536.712H379.058L378.26 531.734L377.443 536.712ZM385.504 537.32L382.046 527.82H386.036L387.138 531.848L387.442 533.52H387.48L387.784 531.848L388.886 527.82H392.686L389.209 537.32V541.5H385.504V537.32ZM392.787 527.82H401.888L401.318 530.86H397.537V532.95H401.09L400.52 535.99H397.537V538.46H402.021L401.451 541.5H393.832V530.423L392.787 527.82ZM407.872 527.82C409.177 527.82 410.228 528.023 411.026 528.428C411.824 528.821 412.407 529.498 412.774 530.461C413.142 531.411 413.325 532.722 413.325 534.394C413.325 536.193 413.142 537.611 412.774 538.65C412.407 539.689 411.824 540.423 411.026 540.854C410.228 541.285 409.177 541.5 407.872 541.5H403.35V530.423L402.305 527.82H407.872ZM407.644 538.46C408.05 538.46 408.373 538.34 408.613 538.099C408.867 537.846 409.05 537.428 409.164 536.845C409.278 536.25 409.335 535.433 409.335 534.394C409.335 533.444 409.285 532.716 409.183 532.209C409.082 531.69 408.911 531.335 408.67 531.145C408.43 530.955 408.088 530.86 407.644 530.86H407.055V538.46H407.644ZM414.876 538.365H418.22V541.5H414.876V538.365ZM414.876 531.753H418.22V534.888H414.876V531.753Z" fill="white"/>
<path d="M311.809 580.5L309.529 566.1H313.689L314.369 574.9L316.029 568.06H319.149L320.829 574.96L321.489 566.1H325.649L323.369 580.5H319.549L317.629 572.02L315.629 580.5H311.809ZM326.943 566.1H330.843V580.5H326.943V566.1ZM336.986 566.1L339.806 574.32V566.1H343.606V580.5H338.926L336.366 573.02V580.5H332.566V568.16L331.746 566.1H336.986ZM355.18 566.1C356.353 566.1 357.333 566.253 358.12 566.56C358.907 566.853 359.493 567.353 359.88 568.06C360.28 568.753 360.48 569.707 360.48 570.92C360.48 571.933 360.327 572.767 360.02 573.42C359.713 574.06 359.247 574.573 358.62 574.96L361.06 580.5H356.72L355.14 575.82H354.5V580.5H350.6V568.84L349.5 566.1H355.18ZM354.5 573.14C355.113 573.14 355.567 572.987 355.86 572.68C356.153 572.373 356.3 571.833 356.3 571.06C356.3 570.447 356.247 569.993 356.14 569.7C356.033 569.393 355.847 569.187 355.58 569.08C355.327 568.973 354.967 568.92 354.5 568.92V573.14ZM365.82 578.56L365.44 580.5H361.26L364.14 567.9L363.68 565.94H369.72L372.86 580.5H368.72L368.34 578.56H365.82ZM366.22 575.46H367.92L367.08 570.22L366.22 575.46ZM381.035 569.3H378.395V580.5H374.475V569.3H371.555V566.1H381.635L381.035 569.3ZM381.727 566.1H391.307L390.707 569.3H386.727V571.5H390.467L389.867 574.7H386.727V577.3H391.447L390.847 580.5H382.827V568.84L381.727 566.1ZM392.986 577.2H396.506V580.5H392.986V577.2ZM392.986 570.24H396.506V573.54H392.986V570.24ZM415.322 565.54L416.802 566.64L407.582 580.42L406.102 579.32L415.322 565.54ZM406.682 574C405.496 574 404.609 573.667 404.022 573C403.436 572.32 403.142 571.353 403.142 570.1C403.142 568.833 403.436 567.86 404.022 567.18C404.609 566.5 405.496 566.16 406.682 566.16C407.869 566.16 408.756 566.5 409.342 567.18C409.929 567.86 410.222 568.833 410.222 570.1C410.222 571.353 409.929 572.32 409.342 573C408.756 573.667 407.869 574 406.682 574ZM406.682 572.3C406.976 572.3 407.169 572.127 407.262 571.78C407.369 571.42 407.422 570.86 407.422 570.1C407.422 569.34 407.369 568.787 407.262 568.44C407.169 568.08 406.976 567.9 406.682 567.9C406.389 567.9 406.189 568.08 406.082 568.44C405.989 568.787 405.942 569.34 405.942 570.1C405.942 570.86 405.989 571.42 406.082 571.78C406.189 572.127 406.389 572.3 406.682 572.3ZM416.122 580.7C414.936 580.7 414.049 580.367 413.462 579.7C412.876 579.02 412.582 578.053 412.582 576.8C412.582 575.533 412.876 574.56 413.462 573.88C414.049 573.2 414.936 572.86 416.122 572.86C417.309 572.86 418.196 573.2 418.782 573.88C419.369 574.56 419.662 575.533 419.662 576.8C419.662 578.053 419.369 579.02 418.782 579.7C418.196 580.367 417.309 580.7 416.122 580.7ZM416.122 579C416.416 579 416.609 578.827 416.702 578.48C416.809 578.12 416.862 577.56 416.862 576.8C416.862 576.04 416.809 575.487 416.702 575.14C416.609 574.78 416.416 574.6 416.122 574.6C415.829 574.6 415.629 574.78 415.522 575.14C415.429 575.487 415.382 576.04 415.382 576.8C415.382 577.56 415.429 578.12 415.522 578.48C415.629 578.827 415.829 579 416.122 579Z" fill="white"/>
<path d="M345.156 604.1H349.056V609.88L351.196 604.1H355.396L352.716 611.08L355.256 618.5H351.056L349.056 612.4V618.5H345.156V604.1ZM361.424 604.1C362.798 604.1 363.904 604.313 364.744 604.74C365.584 605.153 366.198 605.867 366.584 606.88C366.971 607.88 367.164 609.26 367.164 611.02C367.164 612.913 366.971 614.407 366.584 615.5C366.198 616.593 365.584 617.367 364.744 617.82C363.904 618.273 362.798 618.5 361.424 618.5H356.664V606.84L355.564 604.1H361.424ZM361.184 615.3C361.611 615.3 361.951 615.173 362.204 614.92C362.471 614.653 362.664 614.213 362.784 613.6C362.904 612.973 362.964 612.113 362.964 611.02C362.964 610.02 362.911 609.253 362.804 608.72C362.698 608.173 362.518 607.8 362.264 607.6C362.011 607.4 361.651 607.3 361.184 607.3H360.564V615.3H361.184ZM371.611 616.56L371.231 618.5H367.051L369.931 605.9L369.471 603.94H375.511L378.651 618.5H374.511L374.131 616.56H371.611ZM372.011 613.46H373.711L372.871 608.22L372.011 613.46ZM379.988 615.2H383.508V618.5H379.988V615.2ZM379.988 608.24H383.508V611.54H379.988V608.24Z" fill="white"/>
<path d="M563.435 580.5V566.1H567.335V571.64H569.335V566.1H573.235V580.5H569.335V574.84H567.335V580.5H563.435ZM574.137 566.1H583.717L583.117 569.3H579.137V571.5H582.877L582.277 574.7H579.137V577.3H583.857L583.257 580.5H575.237V568.84L574.137 566.1ZM588.621 578.56L588.241 580.5H584.061L586.941 567.9L586.481 565.94H592.521L595.661 580.5H591.521L591.141 578.56H588.621ZM589.021 575.46H590.721L589.881 570.22L589.021 575.46ZM596.658 566.1H600.558V577.1H604.978L604.358 580.5H596.658V566.1ZM605.974 566.1H609.874V580.5H605.974V566.1ZM616.017 566.1L618.837 574.32V566.1H622.637V580.5H617.957L615.397 573.02V580.5H611.597V568.16L610.777 566.1H616.017ZM628.131 573.38C628.131 574.367 628.205 575.153 628.351 575.74C628.498 576.327 628.745 576.753 629.091 577.02C629.451 577.287 629.945 577.447 630.571 577.5V576.12L629.471 573.38H634.171V579.82C633.745 580.1 633.191 580.32 632.511 580.48C631.831 580.627 631.051 580.7 630.171 580.7C628.891 580.7 627.785 580.46 626.851 579.98C625.918 579.5 625.198 578.727 624.691 577.66C624.185 576.58 623.931 575.16 623.931 573.4C623.931 571.627 624.205 570.193 624.751 569.1C625.298 568.007 626.065 567.207 627.051 566.7C628.038 566.193 629.185 565.94 630.491 565.94C630.958 565.94 631.445 565.98 631.951 566.06C632.458 566.14 632.978 566.233 633.511 566.34L633.151 569.62C632.711 569.54 632.331 569.48 632.011 569.44C631.705 569.387 631.391 569.36 631.071 569.36C630.378 569.36 629.811 569.473 629.371 569.7C628.945 569.927 628.631 570.333 628.431 570.92C628.231 571.493 628.131 572.313 628.131 573.38ZM635.709 577.2H639.229V580.5H635.709V577.2ZM635.709 570.24H639.229V573.54H635.709V570.24Z" fill="white"/>
<path d="M569.518 529.1C570.892 529.1 571.998 529.313 572.838 529.74C573.678 530.153 574.292 530.867 574.678 531.88C575.065 532.88 575.258 534.26 575.258 536.02C575.258 537.913 575.065 539.407 574.678 540.5C574.292 541.593 573.678 542.367 572.838 542.82C571.998 543.273 570.892 543.5 569.518 543.5H564.758V531.84L563.658 529.1H569.518ZM569.278 540.3C569.705 540.3 570.045 540.173 570.298 539.92C570.565 539.653 570.758 539.213 570.878 538.6C570.998 537.973 571.058 537.113 571.058 536.02C571.058 535.02 571.005 534.253 570.898 533.72C570.792 533.173 570.612 532.8 570.358 532.6C570.105 532.4 569.745 532.3 569.278 532.3H568.658V540.3H569.278ZM579.705 541.56L579.325 543.5H575.145L578.025 530.9L577.565 528.94H583.605L586.745 543.5H582.605L582.225 541.56H579.705ZM580.105 538.46H581.805L580.965 533.22L580.105 538.46ZM593.106 540.54L591.346 536.34V543.5H587.546V531.84L586.446 529.1H591.206L594.006 535.12L596.806 529.1H600.486V543.5H596.686V536.38L594.926 540.54H593.106ZM605.857 541.56L605.477 543.5H601.297L604.177 530.9L603.717 528.94H609.757L612.897 543.5H608.757L608.377 541.56H605.857ZM606.257 538.46H607.957L607.117 533.22L606.257 538.46ZM616.989 536.38C616.989 537.367 617.062 538.153 617.209 538.74C617.355 539.327 617.602 539.753 617.949 540.02C618.309 540.287 618.802 540.447 619.429 540.5V539.12L618.329 536.38H623.029V542.82C622.602 543.1 622.049 543.32 621.369 543.48C620.689 543.627 619.909 543.7 619.029 543.7C617.749 543.7 616.642 543.46 615.709 542.98C614.775 542.5 614.055 541.727 613.549 540.66C613.042 539.58 612.789 538.16 612.789 536.4C612.789 534.627 613.062 533.193 613.609 532.1C614.155 531.007 614.922 530.207 615.909 529.7C616.895 529.193 618.042 528.94 619.349 528.94C619.815 528.94 620.302 528.98 620.809 529.06C621.315 529.14 621.835 529.233 622.369 529.34L622.009 532.62C621.569 532.54 621.189 532.48 620.869 532.44C620.562 532.387 620.249 532.36 619.929 532.36C619.235 532.36 618.669 532.473 618.229 532.7C617.802 532.927 617.489 533.333 617.289 533.92C617.089 534.493 616.989 535.313 616.989 536.38ZM623.326 529.1H632.906L632.306 532.3H628.326V534.5H632.066L631.466 537.7H628.326V540.3H633.046L632.446 543.5H624.426V531.84L623.326 529.1ZM634.586 540.2H638.106V543.5H634.586V540.2ZM634.586 533.24H638.106V536.54H634.586V533.24Z" fill="white"/>
<path d="M572.214 491.1C573.587 491.1 574.694 491.313 575.534 491.74C576.374 492.153 576.987 492.867 577.374 493.88C577.76 494.88 577.954 496.26 577.954 498.02C577.954 499.913 577.76 501.407 577.374 502.5C576.987 503.593 576.374 504.367 575.534 504.82C574.694 505.273 573.587 505.5 572.214 505.5H567.454V493.84L566.354 491.1H572.214ZM571.974 502.3C572.4 502.3 572.74 502.173 572.994 501.92C573.26 501.653 573.454 501.213 573.574 500.6C573.694 499.973 573.754 499.113 573.754 498.02C573.754 497.02 573.7 496.253 573.594 495.72C573.487 495.173 573.307 494.8 573.054 494.6C572.8 494.4 572.44 494.3 571.974 494.3H571.354V502.3H571.974ZM578.189 491.1H587.769L587.169 494.3H583.189V496.5H586.929L586.329 499.7H583.189V502.3H587.909L587.309 505.5H579.289V493.84L578.189 491.1ZM592.674 503.56L592.294 505.5H588.114L590.994 492.9L590.534 490.94H596.574L599.714 505.5H595.574L595.194 503.56H592.674ZM593.074 500.46H594.774L593.934 495.22L593.074 500.46ZM607.889 494.3H605.249V505.5H601.329V494.3H598.409V491.1H608.489L607.889 494.3ZM609.48 505.5V491.1H613.38V496.64H615.38V491.1H619.28V505.5H615.38V499.84H613.38V505.5H609.48ZM624.682 502.24C625.188 502.24 625.568 502.167 625.822 502.02C626.075 501.873 626.202 501.633 626.202 501.3C626.202 501.073 626.142 500.893 626.022 500.76C625.902 500.627 625.688 500.493 625.382 500.36L623.262 499.38C622.475 499.02 621.868 498.54 621.442 497.94C621.015 497.34 620.802 496.467 620.802 495.32C620.802 493.853 621.182 492.76 621.942 492.04C622.715 491.307 623.988 490.933 625.762 490.92C626.495 490.92 627.162 490.953 627.762 491.02C628.362 491.087 628.842 491.16 629.202 491.24C629.562 491.307 629.742 491.34 629.742 491.34L629.342 494.56C629.342 494.56 629.175 494.54 628.842 494.5C628.522 494.46 628.122 494.427 627.642 494.4C627.162 494.36 626.695 494.34 626.242 494.34C625.762 494.34 625.395 494.413 625.142 494.56C624.902 494.693 624.782 494.953 624.782 495.34C624.782 495.553 624.875 495.733 625.062 495.88C625.248 496.013 625.508 496.153 625.842 496.3L627.542 497.04C628.448 497.44 629.108 497.94 629.522 498.54C629.935 499.127 630.142 499.967 630.142 501.06C630.142 502.54 629.755 503.68 628.982 504.48C628.208 505.28 626.935 505.687 625.162 505.7C624.282 505.7 623.462 505.64 622.702 505.52C621.942 505.413 621.268 505.287 620.682 505.14L621.082 501.92C621.082 501.92 621.242 501.947 621.562 502C621.895 502.053 622.335 502.107 622.882 502.16C623.428 502.213 624.028 502.24 624.682 502.24ZM631.89 502.2H635.41V505.5H631.89V502.2ZM631.89 495.24H635.41V498.54H631.89V495.24Z" fill="white"/>
<path d="M568.582 465.56L568.202 467.5H564.022L566.902 454.9L566.442 452.94H572.482L575.622 467.5H571.482L571.102 465.56H568.582ZM568.982 462.46H570.682L569.842 457.22L568.982 462.46ZM580.219 464.24C580.725 464.24 581.105 464.167 581.359 464.02C581.612 463.873 581.739 463.633 581.739 463.3C581.739 463.073 581.679 462.893 581.559 462.76C581.439 462.627 581.225 462.493 580.919 462.36L578.799 461.38C578.012 461.02 577.405 460.54 576.979 459.94C576.552 459.34 576.339 458.467 576.339 457.32C576.339 455.853 576.719 454.76 577.479 454.04C578.252 453.307 579.525 452.933 581.299 452.92C582.032 452.92 582.699 452.953 583.299 453.02C583.899 453.087 584.379 453.16 584.739 453.24C585.099 453.307 585.279 453.34 585.279 453.34L584.879 456.56C584.879 456.56 584.712 456.54 584.379 456.5C584.059 456.46 583.659 456.427 583.179 456.4C582.699 456.36 582.232 456.34 581.779 456.34C581.299 456.34 580.932 456.413 580.679 456.56C580.439 456.693 580.319 456.953 580.319 457.34C580.319 457.553 580.412 457.733 580.599 457.88C580.785 458.013 581.045 458.153 581.379 458.3L583.079 459.04C583.985 459.44 584.645 459.94 585.059 460.54C585.472 461.127 585.679 461.967 585.679 463.06C585.679 464.54 585.292 465.68 584.519 466.48C583.745 467.28 582.472 467.687 580.699 467.7C579.819 467.7 578.999 467.64 578.239 467.52C577.479 467.413 576.805 467.287 576.219 467.14L576.619 463.92C576.619 463.92 576.779 463.947 577.099 464C577.432 464.053 577.872 464.107 578.419 464.16C578.965 464.213 579.565 464.24 580.219 464.24ZM590.688 464.24C591.194 464.24 591.574 464.167 591.828 464.02C592.081 463.873 592.208 463.633 592.208 463.3C592.208 463.073 592.148 462.893 592.028 462.76C591.908 462.627 591.694 462.493 591.388 462.36L589.268 461.38C588.481 461.02 587.874 460.54 587.448 459.94C587.021 459.34 586.808 458.467 586.808 457.32C586.808 455.853 587.188 454.76 587.948 454.04C588.721 453.307 589.994 452.933 591.768 452.92C592.501 452.92 593.168 452.953 593.768 453.02C594.368 453.087 594.848 453.16 595.208 453.24C595.568 453.307 595.748 453.34 595.748 453.34L595.348 456.56C595.348 456.56 595.181 456.54 594.848 456.5C594.528 456.46 594.128 456.427 593.648 456.4C593.168 456.36 592.701 456.34 592.248 456.34C591.768 456.34 591.401 456.413 591.148 456.56C590.908 456.693 590.788 456.953 590.788 457.34C590.788 457.553 590.881 457.733 591.068 457.88C591.254 458.013 591.514 458.153 591.848 458.3L593.548 459.04C594.454 459.44 595.114 459.94 595.528 460.54C595.941 461.127 596.148 461.967 596.148 463.06C596.148 464.54 595.761 465.68 594.988 466.48C594.214 467.28 592.941 467.687 591.168 467.7C590.288 467.7 589.468 467.64 588.708 467.52C587.948 467.413 587.274 467.287 586.688 467.14L587.088 463.92C587.088 463.92 587.248 463.947 587.568 464C587.901 464.053 588.341 464.107 588.888 464.16C589.434 464.213 590.034 464.24 590.688 464.24ZM597.556 453.1H601.456V467.5H597.556V453.1ZM606.859 464.24C607.366 464.24 607.746 464.167 607.999 464.02C608.253 463.873 608.379 463.633 608.379 463.3C608.379 463.073 608.319 462.893 608.199 462.76C608.079 462.627 607.866 462.493 607.559 462.36L605.439 461.38C604.653 461.02 604.046 460.54 603.619 459.94C603.193 459.34 602.979 458.467 602.979 457.32C602.979 455.853 603.359 454.76 604.119 454.04C604.893 453.307 606.166 452.933 607.939 452.92C608.673 452.92 609.339 452.953 609.939 453.02C610.539 453.087 611.019 453.16 611.379 453.24C611.739 453.307 611.919 453.34 611.919 453.34L611.519 456.56C611.519 456.56 611.353 456.54 611.019 456.5C610.699 456.46 610.299 456.427 609.819 456.4C609.339 456.36 608.873 456.34 608.419 456.34C607.939 456.34 607.573 456.413 607.319 456.56C607.079 456.693 606.959 456.953 606.959 457.34C606.959 457.553 607.053 457.733 607.239 457.88C607.426 458.013 607.686 458.153 608.019 458.3L609.719 459.04C610.626 459.44 611.286 459.94 611.699 460.54C612.113 461.127 612.319 461.967 612.319 463.06C612.319 464.54 611.933 465.68 611.159 466.48C610.386 467.28 609.113 467.687 607.339 467.7C606.459 467.7 605.639 467.64 604.879 467.52C604.119 467.413 603.446 467.287 602.859 467.14L603.259 463.92C603.259 463.92 603.419 463.947 603.739 464C604.073 464.053 604.513 464.107 605.059 464.16C605.606 464.213 606.206 464.24 606.859 464.24ZM622.313 456.3H619.673V467.5H615.753V456.3H612.833V453.1H622.913L622.313 456.3ZM627.113 464.24C627.62 464.24 628 464.167 628.253 464.02C628.507 463.873 628.633 463.633 628.633 463.3C628.633 463.073 628.573 462.893 628.453 462.76C628.333 462.627 628.12 462.493 627.813 462.36L625.693 461.38C624.907 461.02 624.3 460.54 623.873 459.94C623.447 459.34 623.233 458.467 623.233 457.32C623.233 455.853 623.613 454.76 624.373 454.04C625.147 453.307 626.42 452.933 628.193 452.92C628.927 452.92 629.593 452.953 630.193 453.02C630.793 453.087 631.273 453.16 631.633 453.24C631.993 453.307 632.173 453.34 632.173 453.34L631.773 456.56C631.773 456.56 631.607 456.54 631.273 456.5C630.953 456.46 630.553 456.427 630.073 456.4C629.593 456.36 629.127 456.34 628.673 456.34C628.193 456.34 627.827 456.413 627.573 456.56C627.333 456.693 627.213 456.953 627.213 457.34C627.213 457.553 627.307 457.733 627.493 457.88C627.68 458.013 627.94 458.153 628.273 458.3L629.973 459.04C630.88 459.44 631.54 459.94 631.953 460.54C632.367 461.127 632.573 461.967 632.573 463.06C632.573 464.54 632.187 465.68 631.413 466.48C630.64 467.28 629.367 467.687 627.593 467.7C626.713 467.7 625.893 467.64 625.133 467.52C624.373 467.413 623.7 467.287 623.113 467.14L623.513 463.92C623.513 463.92 623.673 463.947 623.993 464C624.327 464.053 624.767 464.107 625.313 464.16C625.86 464.213 626.46 464.24 627.113 464.24ZM634.322 464.2H637.842V467.5H634.322V464.2ZM634.322 457.24H637.842V460.54H634.322V457.24Z" fill="white"/>
<path d="M573.375 415.1H582.955L582.355 418.3H578.375V420.5H582.115L581.515 423.7H578.375V426.3H583.095L582.495 429.5H574.475V417.84L573.375 415.1ZM584.295 415.1H588.195V426.1H592.615L591.995 429.5H584.295V415.1ZM593.611 415.1H597.511V429.5H593.611V415.1ZM604.874 426.54L603.114 422.34V429.5H599.314V417.84L598.214 415.1H602.974L605.774 421.12L608.574 415.1H612.254V429.5H608.454V422.38L606.694 426.54H604.874ZM617.66 426.24C618.167 426.24 618.547 426.167 618.8 426.02C619.053 425.873 619.18 425.633 619.18 425.3C619.18 425.073 619.12 424.893 619 424.76C618.88 424.627 618.667 424.493 618.36 424.36L616.24 423.38C615.453 423.02 614.847 422.54 614.42 421.94C613.993 421.34 613.78 420.467 613.78 419.32C613.78 417.853 614.16 416.76 614.92 416.04C615.693 415.307 616.967 414.933 618.74 414.92C619.473 414.92 620.14 414.953 620.74 415.02C621.34 415.087 621.82 415.16 622.18 415.24C622.54 415.307 622.72 415.34 622.72 415.34L622.32 418.56C622.32 418.56 622.153 418.54 621.82 418.5C621.5 418.46 621.1 418.427 620.62 418.4C620.14 418.36 619.673 418.34 619.22 418.34C618.74 418.34 618.373 418.413 618.12 418.56C617.88 418.693 617.76 418.953 617.76 419.34C617.76 419.553 617.853 419.733 618.04 419.88C618.227 420.013 618.487 420.153 618.82 420.3L620.52 421.04C621.427 421.44 622.087 421.94 622.5 422.54C622.913 423.127 623.12 423.967 623.12 425.06C623.12 426.54 622.733 427.68 621.96 428.48C621.187 429.28 619.913 429.687 618.14 429.7C617.26 429.7 616.44 429.64 615.68 429.52C614.92 429.413 614.247 429.287 613.66 429.14L614.06 425.92C614.06 425.92 614.22 425.947 614.54 426C614.873 426.053 615.313 426.107 615.86 426.16C616.407 426.213 617.007 426.24 617.66 426.24ZM624.869 426.2H628.389V429.5H624.869V426.2ZM624.869 419.24H628.389V422.54H624.869V419.24Z" fill="white"/>
<path d="M430.426 372.684C430.426 374.46 430.558 375.876 430.822 376.932C431.086 377.988 431.53 378.756 432.154 379.236C432.802 379.716 433.69 380.004 434.818 380.1V377.616L432.838 372.684H441.298V384.276C440.53 384.78 439.534 385.176 438.31 385.464C437.086 385.728 435.682 385.86 434.098 385.86C431.794 385.86 429.802 385.428 428.122 384.564C426.442 383.7 425.146 382.308 424.234 380.388C423.322 378.444 422.866 375.888 422.866 372.72C422.866 369.528 423.358 366.948 424.342 364.98C425.326 363.012 426.706 361.572 428.482 360.66C430.258 359.748 432.322 359.292 434.674 359.292C435.514 359.292 436.39 359.364 437.302 359.508C438.214 359.652 439.15 359.82 440.11 360.012L439.462 365.916C438.67 365.772 437.986 365.664 437.41 365.592C436.858 365.496 436.294 365.448 435.718 365.448C434.47 365.448 433.45 365.652 432.658 366.06C431.89 366.468 431.326 367.2 430.966 368.256C430.606 369.288 430.426 370.764 430.426 372.684ZM441.834 359.58H459.078L457.998 365.34H450.834V369.3H457.566L456.486 375.06H450.834V379.74H459.33L458.25 385.5H443.814V364.512L441.834 359.58ZM469.301 359.58L474.377 374.376V359.58H481.217V385.5H472.793L468.185 372.036V385.5H461.345V363.288L459.869 359.58H469.301ZM482.826 359.58H500.07L498.99 365.34H491.826V369.3H498.558L497.478 375.06H491.826V379.74H500.322L499.242 385.5H484.806V364.512L482.826 359.58ZM511.085 359.58C513.197 359.58 514.961 359.856 516.377 360.408C517.793 360.936 518.849 361.836 519.545 363.108C520.265 364.356 520.625 366.072 520.625 368.256C520.625 370.08 520.349 371.58 519.797 372.756C519.245 373.908 518.405 374.832 517.277 375.528L521.669 385.5H513.857L511.013 377.076H509.861V385.5H502.841V364.512L500.861 359.58H511.085ZM509.861 372.252C510.965 372.252 511.781 371.976 512.309 371.424C512.837 370.872 513.101 369.9 513.101 368.508C513.101 367.404 513.005 366.588 512.813 366.06C512.621 365.508 512.285 365.136 511.805 364.944C511.349 364.752 510.701 364.656 509.861 364.656V372.252ZM530.238 382.008L529.554 385.5H522.03L527.214 362.82L526.386 359.292H537.258L542.91 385.5H535.458L534.774 382.008H530.238ZM530.958 376.428H534.018L532.506 366.996L530.958 376.428ZM544.704 359.58H551.724V379.38H559.68L558.564 385.5H544.704V359.58Z" fill="white"/>
<g clip-path="url(#clip0_19_1231)">
<path d="M857.434 504.34H852.682V524.5H845.626V504.34H840.37V498.58H858.514L857.434 504.34ZM864.183 521.008L863.499 524.5H855.975L861.159 501.82L860.331 498.292H871.203L876.855 524.5H869.403L868.719 521.008H864.183ZM864.903 515.428H867.963L866.451 505.996L864.903 515.428ZM886.11 498.58L891.186 513.376V498.58H898.026V524.5H889.602L884.994 511.036V524.5H878.154V502.288L876.678 498.58H886.11ZM901.255 498.58H908.275V508.984L912.127 498.58H919.687L914.863 511.144L919.435 524.5H911.875L908.275 513.52V524.5H901.255V498.58Z" fill="#242628"/>
<path d="M965.707 512.207C966.098 511.817 966.098 511.183 965.707 510.793L959.343 504.429C958.953 504.038 958.319 504.038 957.929 504.429C957.538 504.819 957.538 505.453 957.929 505.843L963.586 511.5L957.929 517.157C957.538 517.547 957.538 518.181 957.929 518.571C958.319 518.962 958.953 518.962 959.343 518.571L965.707 512.207ZM927 512.5H965V510.5H927V512.5Z" fill="#242628"/>
</g>
<g clip-path="url(#clip1_19_1231)">
<path d="M100.268 517.632C101.18 517.632 101.864 517.5 102.32 517.236C102.776 516.972 103.004 516.54 103.004 515.94C103.004 515.532 102.896 515.208 102.68 514.968C102.464 514.728 102.08 514.488 101.528 514.248L97.712 512.484C96.296 511.836 95.204 510.972 94.436 509.892C93.668 508.812 93.284 507.24 93.284 505.176C93.284 502.536 93.968 500.568 95.336 499.272C96.728 497.952 99.02 497.28 102.212 497.256C103.532 497.256 104.732 497.316 105.812 497.436C106.892 497.556 107.756 497.688 108.404 497.832C109.052 497.952 109.376 498.012 109.376 498.012L108.656 503.808C108.656 503.808 108.356 503.772 107.756 503.7C107.18 503.628 106.46 503.568 105.596 503.52C104.732 503.448 103.892 503.412 103.076 503.412C102.212 503.412 101.552 503.544 101.096 503.808C100.664 504.048 100.448 504.516 100.448 505.212C100.448 505.596 100.616 505.92 100.952 506.184C101.288 506.424 101.756 506.676 102.356 506.94L105.416 508.272C107.048 508.992 108.236 509.892 108.98 510.972C109.724 512.028 110.096 513.54 110.096 515.508C110.096 518.172 109.4 520.224 108.008 521.664C106.616 523.104 104.324 523.836 101.132 523.86C99.548 523.86 98.072 523.752 96.704 523.536C95.336 523.344 94.124 523.116 93.068 522.852L93.788 517.056C93.788 517.056 94.076 517.104 94.652 517.2C95.252 517.296 96.044 517.392 97.028 517.488C98.012 517.584 99.092 517.632 100.268 517.632ZM119.12 514.68C119.12 515.952 119.264 516.876 119.552 517.452C119.84 518.004 120.296 518.28 120.92 518.28C121.568 518.28 122.024 518.004 122.288 517.452C122.576 516.876 122.72 515.952 122.72 514.68V497.58H129.74V514.356C129.74 517.692 129.02 520.116 127.58 521.628C126.14 523.116 123.92 523.86 120.92 523.86C117.944 523.86 115.724 523.116 114.26 521.628C112.82 520.116 112.1 517.692 112.1 514.356V497.58H119.12V514.68ZM132.82 523.5V502.512L130.84 497.58H141.208C143.368 497.58 145.156 497.88 146.572 498.48C147.988 499.056 149.044 500.04 149.74 501.432C150.436 502.824 150.784 504.72 150.784 507.12C150.784 510.432 149.992 512.82 148.408 514.284C146.824 515.748 144.424 516.48 141.208 516.48H139.84V523.5H132.82ZM139.84 511.332C140.992 511.332 141.844 511.02 142.396 510.396C142.972 509.772 143.26 508.656 143.26 507.048C143.26 505.824 143.152 504.9 142.936 504.276C142.744 503.652 142.396 503.232 141.892 503.016C141.412 502.776 140.728 502.656 139.84 502.656V511.332ZM153.316 523.5V502.512L151.336 497.58H161.704C163.864 497.58 165.652 497.88 167.068 498.48C168.484 499.056 169.54 500.04 170.236 501.432C170.932 502.824 171.28 504.72 171.28 507.12C171.28 510.432 170.488 512.82 168.904 514.284C167.32 515.748 164.92 516.48 161.704 516.48H160.336V523.5H153.316ZM160.336 511.332C161.488 511.332 162.34 511.02 162.892 510.396C163.468 509.772 163.756 508.656 163.756 507.048C163.756 505.824 163.648 504.9 163.432 504.276C163.24 503.652 162.892 503.232 162.388 503.016C161.908 502.776 161.224 502.656 160.336 502.656V511.332Z" fill="#242628"/>
<path d="M47.2929 512.207C46.9024 511.817 46.9024 511.183 47.2929 510.793L53.6569 504.429C54.0474 504.038 54.6805 504.038 55.0711 504.429C55.4616 504.819 55.4616 505.453 55.0711 505.843L49.4142 511.5L55.0711 517.157C55.4616 517.547 55.4616 518.181 55.0711 518.571C54.6805 518.962 54.0474 518.962 53.6569 518.571L47.2929 512.207ZM86 512.5H48V510.5H86V512.5Z" fill="#242628"/>
</g>
<defs>
<clipPath id="clip0_19_1231">
<rect width="138" height="38" fill="white" transform="translate(835 491.5)"/>
</clipPath>
<clipPath id="clip1_19_1231">
<rect width="138" height="38" fill="white" transform="matrix(-1 0 0 1 178 491.5)"/>
</clipPath>
</defs>
</svg>
